# xmcd
#
# Track frame offsets:
#	182
#	13407
#	27875
#	41937
#	54497
#	71247
#	88787
#	103460
#	119417
#	132692
#	148332
#	164155
#	174692
#	186992
#	201872
#	214850
#	231842
#	251257
#	268442
#	280835
#	295490
#	310035
#	325105
#
# Disc length: 4490 seconds
# Revision: 7
# Processed by: cddbd v1.5.2PL0 Copyright (c) Steve Scherf et al.
# Submitted via: dBpowerAMP V12.0
#
DISCID=85118817
DTITLE=Crystal Gayle - The Best of Crystal Gayle ~ Talking in Your Sleep [dBP-LITE-1-FLAC@]
DYEAR=1996
DGENRE=Pop
TTITLE0=Talking in Your Sleep
TTITLE1=God Bless the Child
TTITLE2=Everything I Own
TTITLE3=Coming to the Dance
TTITLE4=Dancing the Night Away
TTITLE5=Ain't No Love in the Heart of the City
TTITLE6=Same Old Story (Same Old Song)
TTITLE7=You've Almost Got Me Believing
TTITLE8=Turning Away from Love
TTITLE9=Let Your Feelings Show
TTITLE10=Ain't No Sunshine
TTITLE11=Crying in the Rain
TTITLE12=Don't It Make My Brown Eyes Blue
TTITLE13=The Blue Side
TTITLE14=Truelove
TTITLE15=Lover Man (Oh Where Can You Be)
TTITLE16=Cry
TTITLE17=Love Found Me
TTITLE18=Baby What About You
TTITLE19=He Is Beautiful to Me
TTITLE20=After the Best
TTITLE21=Love Does That to Fools
TTITLE22=Take Me Home
EXTD=
EXTT0=
EXTT1=
EXTT2=
EXTT3=
EXTT4=
EXTT5=
EXTT6=
EXTT7=
EXTT8=
EXTT9=
EXTT10=
EXTT11=
EXTT12=
EXTT13=
EXTT14=
EXTT15=
EXTT16=
EXTT17=
EXTT18=
EXTT19=
EXTT20=
EXTT21=
EXTT22=
PLAYORDER=
